<?xml version="1.0" encoding="utf-8"?>
<!-- Generator: Adobe Illustrator 19.0.1, SVG Export Plug-In . SVG Version: 6.00 Build 0)  -->
<svg version="1.1" id="Calque_1" xmlns="http://www.w3.org/2000/svg" xmlns:xlink="http://www.w3.org/1999/xlink" x="0px" y="0px"
	 viewBox="-309.8 536.5 260 118" style="enable-background:new -309.8 536.5 260 118;" xml:space="preserve">
<style type="text/css">
	.st0{font-family:'Montserrat-Black';}
	.st1{font-size:164.6043px;}
</style>
<g>
	<text transform="matrix(1.0024 0 0 1 -319.2541 654.5484)" class="st0 st1">N°1</text>
	<g>
		<path d="M-169.5,595.6l-5.4,7.3c-0.3,0.3,0,0.8,0.3,0.8l6.2,0.3c0.2,0,0.3,0.2,0.4,0.3l2.2,5.7c0.2,0.3,0.7,0.4,0.8,0.1l7.7-10.2
			C-161.7,599.4-165.8,597.9-169.5,595.6z"/>
		<path d="M-138.5,597.2c-4,1.9-8.4,3-13,3.1c0,0.1,0,0.2,0.1,0.2l7.2,9.8c0.3,0.3,0.8,0.3,0.8-0.1l2.2-5.7c0.1-0.2,0.3-0.3,0.4-0.3
			l6.2-0.3c0.4,0,0.6-0.5,0.3-0.8L-138.5,597.2z"/>
	</g>
</g>
</svg>
