<?xml version="1.0" encoding="utf-8"?>
<!-- Generator: Adobe Illustrator 19.0.1, SVG Export Plug-In . SVG Version: 6.00 Build 0)  -->
<svg version="1.1" id="Calque_1" xmlns="http://www.w3.org/2000/svg" xmlns:xlink="http://www.w3.org/1999/xlink" x="0px" y="0px"
	 viewBox="-415 590.6 11 11" style="enable-background:new -415 590.6 11 11;" xml:space="preserve">
<path d="M-404.2,599.1l-0.1-0.1c-0.2-0.4-2.5-1-2.6-1l-0.2,0c-0.3,0.1-0.7,0.3-1.4,0.9c-0.8-0.3-1.9-1.3-2.4-1.8
	c-0.6-0.6-1.3-1.6-1.5-2.3c0.8-0.7,1.2-1,1.2-1.3c0-0.2-0.4-2.3-0.8-2.6l-0.1-0.1c-0.3-0.2-0.7-0.4-1.1-0.3c-0.1,0-0.2,0.1-0.3,0.1
	c-0.3,0.2-1,0.6-1.3,1.2c-0.2,0.4-0.3,3.8,2.5,6.7c2.8,2.9,6.2,3,6.7,2.9l0,0l0,0c0.7-0.2,1.3-0.8,1.5-1.1
	C-403.8,600-404.1,599.4-404.2,599.1z"/>
</svg>
