<svg xmlns="http://www.w3.org/2000/svg" xmlns:xlink="http://www.w3.org/1999/xlink" preserveAspectRatio="xMidYMid" width="26" height="16" viewBox="0 0 26 16">
  <defs>
    <style>
      .cls-1 {
        fill: #252525;
        fill-rule: evenodd;
      }
    </style>
  </defs>
  <path d="M26.000,8.003 C26.000,7.808 25.883,7.550 25.764,7.424 L19.054,0.266 C18.741,-0.059 18.233,-0.097 17.868,0.233 C17.542,0.528 17.533,1.104 17.835,1.424 L23.221,7.161 L0.839,7.161 C0.376,7.161 0.000,7.538 0.000,8.003 C0.000,8.468 0.376,8.845 0.839,8.845 L23.221,8.845 L17.835,14.582 C17.533,14.903 17.555,15.464 17.868,15.773 C18.199,16.100 18.745,16.070 19.054,15.740 L25.764,8.582 C25.961,8.388 25.997,8.201 26.000,8.003 Z" class="cls-1"/>
</svg>
