<svg xmlns="http://www.w3.org/2000/svg" xmlns:xlink="http://www.w3.org/1999/xlink" preserveAspectRatio="xMidYMid" width="29" height="26" viewBox="0 0 29 26">
  <defs>
    <style>
      .cls-1 {
        fill: #111;
        fill-rule: evenodd;
      }
    </style>
  </defs>
  <path d="M29.000,8.099 L23.654,25.997 L5.346,25.997 L0.000,8.099 L11.309,8.099 L11.309,9.105 C11.309,10.865 12.741,12.297 14.500,12.297 C16.259,12.297 17.690,10.865 17.690,9.105 L17.690,8.099 L29.000,8.099 ZM14.556,-0.000 C15.298,-0.000 15.902,0.335 15.902,0.747 L15.902,9.704 C15.902,10.116 15.298,10.451 14.556,10.451 C13.815,10.451 13.211,10.116 13.211,9.704 L13.211,0.747 C13.211,0.335 13.815,-0.000 14.556,-0.000 L14.556,-0.000 Z" class="cls-1"/>
</svg>
