<svg xmlns="http://www.w3.org/2000/svg" xmlns:xlink="http://www.w3.org/1999/xlink" preserveAspectRatio="xMidYMid" width="17" height="17" viewBox="0 0 17 17">
  <defs>
    <style>
      .cls-1 {
        fill: #ec0027;
        fill-rule: evenodd;
      }
    </style>
  </defs>
  <path d="M16.759,16.784 C16.470,17.074 16.000,17.074 15.710,16.784 L11.228,12.296 C10.041,13.250 8.555,13.845 6.914,13.845 C3.091,13.845 -0.008,10.743 -0.008,6.915 C-0.008,3.087 3.091,-0.016 6.914,-0.016 C10.738,-0.016 13.837,3.087 13.837,6.915 C13.837,8.564 13.238,10.058 12.278,11.247 L16.759,15.734 C17.049,16.024 17.049,16.494 16.759,16.784 ZM6.914,1.469 C3.911,1.469 1.475,3.908 1.475,6.915 C1.475,9.922 3.911,12.360 6.914,12.360 C9.918,12.360 12.354,9.922 12.354,6.915 C12.354,3.908 9.918,1.469 6.914,1.469 Z" class="cls-1"/>
</svg>
