<svg xmlns="http://www.w3.org/2000/svg" xmlns:xlink="http://www.w3.org/1999/xlink" preserveAspectRatio="xMidYMid" width="19" height="25" viewBox="0 0 19 25">
  <defs>
    <style>
      .cls-1 {
        fill: #252525;
        fill-rule: evenodd;
      }
    </style>
  </defs>
  <path d="M16.310,24.394 L16.310,24.394 C14.772,24.670 12.342,25.000 9.502,25.000 C6.661,25.000 4.232,24.670 2.694,24.394 C1.115,24.109 -0.017,22.692 0.003,21.023 C0.010,20.406 0.029,19.782 0.059,19.168 C0.067,19.001 0.080,18.834 0.099,18.669 C0.435,15.644 2.556,13.842 5.503,12.972 C5.503,12.972 5.503,12.972 5.503,12.972 C5.539,12.961 5.674,12.912 5.829,12.814 C6.687,13.396 7.907,13.991 9.364,14.038 C9.426,14.040 9.487,14.041 9.548,14.041 C10.787,14.041 11.989,13.631 13.142,12.834 C13.281,12.914 13.407,12.950 13.459,12.962 C13.464,12.963 13.469,12.966 13.475,12.967 C13.483,12.969 13.491,12.969 13.499,12.972 C16.447,13.841 18.569,15.643 18.905,18.669 C18.923,18.834 18.937,19.001 18.945,19.169 C18.975,19.782 18.994,20.406 19.001,21.023 C19.020,22.692 17.889,24.109 16.310,24.394 ZM14.462,4.790 C14.497,5.414 14.387,5.921 14.143,6.310 C14.246,6.511 14.305,6.747 14.299,7.017 C14.288,7.542 14.273,8.246 13.752,8.865 C13.644,9.661 13.341,10.384 12.901,10.985 C11.772,11.858 10.603,12.289 9.406,12.253 C8.015,12.211 6.850,11.551 6.108,10.996 C5.679,10.417 5.376,9.728 5.256,8.967 C4.647,8.328 4.631,7.577 4.619,7.019 C4.613,6.761 4.659,6.548 4.738,6.372 C4.328,5.902 4.108,5.398 4.089,4.861 C4.058,3.953 4.620,3.261 4.910,2.967 C5.051,2.208 5.781,0.000 9.502,0.000 C11.322,0.000 12.526,0.729 13.406,1.262 C14.363,1.841 14.627,1.940 15.029,1.573 C15.199,1.418 15.447,1.395 15.641,1.517 C15.835,1.639 15.930,1.877 15.877,2.106 C15.858,2.184 15.479,3.749 14.462,4.790 Z" class="cls-1"/>
</svg>
